<svg id="Calque_1" xmlns="http://www.w3.org/2000/svg" viewBox="0 0 355.2 53.7"><path fill="#1D1D1B" d="M90.7 6.3c2.5 0 4.8.3 6.9 1 2.1.7 3.9 1.7 5.4 2.9 1.5 1.3 2.7 2.7 3.3 4.1.6 1.4 1.1 2.7 1.3 3.8.2 1.1.3 2.2.3 3.5s-.1 2.4-.3 3.5c-.2 1.1-.7 2.3-1.3 3.8-.6 1.4-1.7 2.8-3.3 4.1-1.5 1.3-3.4 2.3-5.4 2.9-2.1.7-4.4 1-6.9 1h-4.4v14.3H76.1V6.3h14.6zm.1 22c2.2 0 3.9-.6 5-1.8 1-1.1 1.5-2.8 1.5-4.9 0-2.1-.5-3.8-1.5-5-1.1-1.1-2.7-1.7-5-1.7h-4.4v13.4h4.4zM142.5 38.7c-.2 1.1-.5 2.5-1 4s-1.4 3.1-2.8 4.6c-1.4 1.5-3.1 2.7-5.2 3.5-2.1.9-4.5 1.3-7.3 1.3-1.4 0-2.7-.1-3.9-.3-1.3-.2-2.7-.7-4.2-1.3-1.5-.6-3-1.7-4.4-3.2-1.4-1.5-2.3-3-2.8-4.6-.5-1.5-.9-2.9-1-4-.2-1.1-.3-2.3-.3-3.6 0-1.3.1-2.5.3-3.6.1-1.1.5-2.5 1-4s1.4-3 2.8-4.6c1.3-1.5 3.1-2.6 5.2-3.4 2.1-.8 4.5-1.2 7.3-1.2s5.2.4 7.3 1.2c2.1.8 3.8 1.9 5.2 3.4 1.4 1.5 2.3 3 2.8 4.6.5 1.5.8 2.9 1 4 .2 1.1.3 2.3.3 3.6-.1 1.2-.1 2.4-.3 3.6zm-22.5.1c.2 1.1.7 2.2 1.5 3.3.8 1.1 2.3 1.7 4.6 1.7s3.8-.5 4.6-1.7c.7-1.1 1.3-2.1 1.5-3.3.3-1.1.4-2.3.4-3.8 0-1.4-.1-2.7-.4-3.8-.3-1.1-.8-2.1-1.5-3.3-.8-1.1-2.3-1.6-4.6-1.6s-3.8.5-4.6 1.6c-.8 1.1-1.3 2.2-1.5 3.3-.3 1.1-.4 2.3-.4 3.8s.2 2.7.4 3.8zM165.5 18.5c1.7.2 3.4.5 4.9.9V28h-.7c-1.7-.6-3.4-1-4.9-1.2-1.5-.2-2.7-.3-3.8-.3-2.7-.1-4.2.7-4.6 2.3.1.9.9 1.6 2.5 1.9l5.4 1.3c2.1.5 3.7 1.3 4.8 2.3 1.1 1.1 1.9 2.1 2.3 3.2.5 1.1.7 2.3.7 3.9 0 2.1-.4 3.8-1.3 5.2-.9 1.4-2.1 2.5-3.6 3.2-1.5.8-3.2 1.3-5 1.7-1.9.3-3.8.5-5.8.5-1.7 0-3.4-.1-5-.3s-3.1-.4-4.4-.7v-8.4h.5c1.7.3 3.3.6 5 .8 1.6.2 3 .3 4.3.3 1.7 0 2.9-.1 4-.5.9-.3 1.4-.9 1.4-1.7-.1-1-1.9-2-5.5-2.9-3.6-.9-6-1.9-7.1-2.9-1.1-1.1-1.9-2.1-2.4-3.3-.5-1.1-.7-2.5-.7-4.1 0-1.5.3-2.8.9-4.1.6-1.2 1.5-2.3 2.7-3.2 1.1-.9 2.6-1.6 4.3-2.1 1.7-.5 3.5-.7 5.6-.7 2 0 3.8.1 5.5.3zM198.9 50.5c-1.3.4-2.7.7-4.4 1.1-1.7.3-3.4.4-5.1.4-1.3 0-2.5-.1-3.7-.4-1.2-.3-2.3-.7-3.1-1.5-.9-.7-1.7-1.7-2.2-3.1-.5-1.3-.8-3-.8-5.1V27h-4.5v-6.6l4.5-1.1v-7.8l8.2-1.9h1.5v9.5h10.3V27h-10.3v13.2c.1 1.5.5 2.5 1.2 2.9.7.5 1.5.7 2.4.7 1.9-.1 3.7-.5 5.5-1.1l.3 3.9.2 3.9zM221.4 48h-.3c-1.1 1-2.5 1.9-4.2 2.7-1.7.7-3.6 1.1-6 1.1-1.1 0-2.1-.2-3.1-.6-1-.4-1.9-1-2.8-1.7-.9-.7-1.5-1.7-2-2.9-.5-1.1-.7-2.5-.7-4.2 0-1.9.4-3.6 1.1-4.8.7-1.2 1.7-2.1 3-2.8 1.3-.7 2.6-1.2 4.1-1.5 1.4-.3 2.9-.5 4.3-.7l5.8-.7v-1.2c.1-1.5-.3-2.5-1-3.2-.7-.7-1.9-1-3.8-1-1.1 0-2.6.2-4.6.5-2.1.3-4.1.9-6.2 1.6l-.7-8c1.9-.7 4-1.3 6.2-1.6 2.2-.3 4.4-.5 6.4-.5 2.1 0 4 .2 5.7.7 1.7.5 3.1 1.2 4.2 2.2 1.1 1 2 2.3 2.6 4 .6 1.7.9 3.7.9 6V51l-8.2.9h-.7V48zm-5.7-9.6c-1.9.1-3.1 1.1-3.4 3.1.1 1.9 1.1 2.9 2.9 2.9 1.9-.1 3.7-.8 5.4-1.9v-4.8l-4.9.7zM261.6 50.2c-1.7.6-3.4 1-5 1.3-1.7.3-3.4.5-5.4.5-3 0-5.6-.4-7.8-1.1-2.2-.7-4-1.9-5.3-3.4-1.3-1.5-2.2-3-2.7-4.6-.5-1.5-.8-2.9-.9-4.2-.2-1.1-.3-2.4-.3-3.8 0-1.3.1-2.5.3-3.8.2-1.1.6-2.5 1.2-4.1.6-1.5 1.6-3 3.1-4.5s3.3-2.6 5.4-3.4c2.1-.7 4.5-1.1 7.1-1.1 2.1 0 3.9.1 5.4.4 1.5.3 3 .7 4.4 1.2l-.7 8.4c-1.1-.4-2.3-.8-3.8-1.1-1.5-.3-3.1-.5-4.8-.6-2.2-.1-3.8.4-4.9 1.3-1.1.9-1.8 1.9-2.2 3-.4 1.1-.6 2.4-.6 4 0 1.7.2 3.1.7 4.2.4 1.1 1.1 2.1 2.3 3.1 1.1 1 2.8 1.5 5.2 1.4 1.1 0 2.5-.1 4.1-.5 1.5-.3 3.2-.7 5.1-1.5v8.9zM283.3 48h-.3c-1.1 1-2.5 1.9-4.2 2.7-1.7.7-3.6 1.1-6 1.1-1.1 0-2.1-.2-3.1-.6-1-.4-1.9-1-2.8-1.7-.9-.7-1.5-1.7-2-2.9-.5-1.1-.7-2.5-.7-4.2 0-1.9.4-3.6 1.1-4.8.7-1.2 1.7-2.1 3-2.8 1.3-.7 2.6-1.2 4.1-1.5 1.4-.3 2.9-.5 4.3-.7l5.8-.7v-1.2c.1-1.5-.3-2.5-1-3.2-.7-.7-1.9-1-3.8-1-1.1 0-2.6.2-4.6.5-2.1.3-4.1.9-6.2 1.6l-.7-8c1.9-.7 4-1.3 6.2-1.6 2.2-.3 4.4-.5 6.4-.5 2.1 0 4 .2 5.7.7 1.7.5 3.1 1.2 4.2 2.2 1.1 1 2 2.3 2.6 4 .6 1.7.9 3.7.9 6V51l-8.2.9h-.7V48zm-5.7-9.6c-1.9.1-3.1 1.1-3.4 3.1.1 1.9 1.1 2.9 2.9 2.9 1.9-.1 3.7-.8 5.4-1.9v-4.8l-4.9.7zM305.6 18.5l.5 5.3h.2c1.1-1.6 2.3-2.9 3.8-3.8 1.5-.9 3.4-1.3 5.6-1.3.8 0 1.6.1 2.3.1v2c-.1 2.1-.1 4.3-.1 6.5h-.8c-1.3 0-2.5.1-3.5.4-1 .3-2.1.7-3.4 1.5-1.3.7-2.4 2.1-3.4 4v18.1h-9.7V19.4l7.2-.9h1.3zM342.6 48.7c-1.3.9-2.9 1.7-4.7 2.3-1.8.6-3.6.9-5.1 1-1.8 0-3.5-.3-5.1-.9-1.6-.6-3-1.6-4.2-2.9-1.3-1.3-2.1-2.7-2.6-4.2s-.9-2.9-1.1-4.1c-.2-1.2-.3-2.5-.3-3.9 0-1.3.1-2.6.3-3.9.2-1.2.5-2.6 1.1-4.3.5-1.6 1.5-3.2 3-4.8 1.4-1.5 3.1-2.7 5.2-3.6 2-.8 4.3-1.2 6.9-1.2 1.7 0 3.6.3 5.8.7V3.4l8.5-1h1.2v48.2l-7.8 1.5h-1.3v-3.4zm-.7-21.7c-1.3-.3-2.7-.5-4.2-.6-1.3 0-2.5.2-3.5.5-1 .4-1.9 1-2.5 1.7-.7.7-1.3 1.7-1.6 2.9-.3 1.2-.5 2.6-.5 4.2 0 1.5.1 2.7.5 3.7.3 1 .9 2 1.8 2.9.9.9 2.2 1.3 4 1.3 1 0 2.1-.2 3.1-.7 1-.5 2-1.1 3-1.9V27zM56.8 51.2H3V13.6h7.1L51 2.6l2.9 11h2.9v37.6zm-52-1.8H55v-34H4.8v34zM17 13.6h35.1l-2.3-8.8L17 13.6zm34.4 31.3H38.9v-1.8h12.6v1.8zm-20.6 0H29V19.8h1.8v25.1zm20.6-3.5H40.7v-1.8h10.8v1.8zM8 21.6h14.2v1.8H8v-1.8zm0 3.6h17V27H8v-1.8zm0 3.6h15.4v1.8H8v-1.8zm0 3.6h16.8v1.8H8v-1.8zm7.6 9h4.7v1.8h-4.7v-1.8zM8 35.9h9.4v1.8H8v-1.8zm43.4-7.1h-9v-9h9v9zM44.2 27h5.4v-5.4h-5.4V27z"/></svg>